<svg version="1.1" id="Layer_1" xmlns="http://www.w3.org/2000/svg" xmlns:xlink="http://www.w3.org/1999/xlink" x="0px" y="0px"
	 width="100%" viewBox="0 0 200 200" enable-background="new 0 0 200 200" xml:space="preserve">
<path fill="#FCF5EC" opacity="1.000000" stroke="none" 
	d="
M100.000000,201.000000 
	C66.687195,201.000000 33.874397,201.000000 1.030797,201.000000 
	C1.030797,134.395569 1.030797,67.791107 1.030797,1.093328 
	C67.562645,1.093328 134.125458,1.093328 200.844147,1.093328 
	C200.844147,67.666382 200.844147,134.333145 200.844147,201.000000 
	C167.458054,201.000000 133.979034,201.000000 100.000000,201.000000 
M53.010349,111.500000 
	C53.009911,122.331459 53.078392,133.163651 52.963387,143.993896 
	C52.932381,146.913589 53.765575,148.188324 56.907467,148.180969 
	C86.402145,148.112045 115.897194,148.118942 145.391800,148.211868 
	C148.712204,148.222321 149.193405,146.575272 149.172073,143.858887 
	C149.096222,134.194504 149.145035,124.529152 149.146408,114.864159 
	C149.146820,112.077164 149.146454,109.290176 149.146454,106.495499 
	C147.896301,106.202576 147.276474,106.020226 146.643814,105.914574 
	C133.727173,103.757683 125.332901,95.406853 122.607056,82.504036 
	C122.245255,80.791451 120.442207,78.950790 118.819305,78.010780 
	C111.101616,73.540627 106.716980,67.274582 106.979889,58.120827 
	C107.016113,56.859646 106.773972,55.590469 106.646591,54.167358 
	C104.983681,54.047905 103.680412,53.874340 102.376953,53.872883 
	C87.546257,53.856293 72.713249,54.010590 57.886292,53.775730 
	C53.732822,53.709942 52.901386,55.236473 52.938442,59.009670 
	C53.106976,76.171700 53.011116,93.336311 53.010349,111.500000 
z"/>
<path fill="#EB6B39" opacity="1.000000" stroke="none" 
	d="
M53.010353,111.000000 
	C53.011116,93.336311 53.106976,76.171700 52.938442,59.009670 
	C52.901386,55.236473 53.732822,53.709942 57.886292,53.775730 
	C72.713249,54.010590 87.546257,53.856293 102.376953,53.872883 
	C103.680412,53.874340 104.983681,54.047905 106.646591,54.167358 
	C106.773972,55.590469 107.016113,56.859646 106.979889,58.120827 
	C106.716980,67.274582 111.101616,73.540627 118.819305,78.010780 
	C120.442207,78.950790 122.245255,80.791451 122.607056,82.504036 
	C125.332901,95.406853 133.727173,103.757683 146.643814,105.914574 
	C147.276474,106.020226 147.896301,106.202576 149.146454,106.495499 
	C149.146454,109.290176 149.146820,112.077164 149.146408,114.864159 
	C149.145035,124.529152 149.096222,134.194504 149.172073,143.858887 
	C149.193405,146.575272 148.712204,148.222321 145.391800,148.211868 
	C115.897194,148.118942 86.402145,148.112045 56.907467,148.180969 
	C53.765575,148.188324 52.932381,146.913589 52.963387,143.993896 
	C53.078392,133.163651 53.009911,122.331459 53.010353,111.000000 
z"/>
</svg>